<mxfile host="app.diagrams.net" modified="2021-04-20T19:41:57.914Z" agent="5.0 (Windows NT 10.0; Win64; x64) AppleWebKit/537.36 (KHTML, like Gecko) Chrome/89.0.4389.128 Safari/537.36" etag="Y4gGsDLCf2340bTkS7RB" version="14.6.3" type="github">
  <diagram id="wXKsKiqISnARRX8aFv5N" name="Page-1">
    <mxGraphModel dx="1422" dy="762" grid="1" gridSize="10" guides="1" tooltips="1" connect="1" arrows="1" fold="1" page="1" pageScale="1" pageWidth="827" pageHeight="1169" math="0" shadow="0">
      <root>
        <mxCell id="0" />
        <mxCell id="1" parent="0" />
        <mxCell id="mE0wj-ytG5v5CyAUS7sz-1" value="Azure" style="verticalAlign=top;align=left;spacingTop=8;spacingLeft=2;spacingRight=12;shape=cube;size=10;direction=south;fontStyle=4;html=1;rounded=0;shadow=0;comic=0;labelBackgroundColor=none;strokeWidth=1;fontFamily=Verdana;fontSize=12" vertex="1" parent="1">
          <mxGeometry x="50" y="50" width="550" height="400" as="geometry" />
        </mxCell>
        <mxCell id="mE0wj-ytG5v5CyAUS7sz-2" style="edgeStyle=orthogonalEdgeStyle;rounded=0;orthogonalLoop=1;jettySize=auto;html=1;entryX=0;entryY=0.5;entryDx=0;entryDy=0;startArrow=classic;startFill=1;" edge="1" parent="1" source="mE0wj-ytG5v5CyAUS7sz-3" target="mE0wj-ytG5v5CyAUS7sz-13">
          <mxGeometry relative="1" as="geometry" />
        </mxCell>
        <mxCell id="mE0wj-ytG5v5CyAUS7sz-3" value="WebServer" style="verticalAlign=top;align=left;spacingTop=8;spacingLeft=2;spacingRight=12;shape=cube;size=10;direction=south;fontStyle=4;html=1;rounded=0;shadow=0;comic=0;labelBackgroundColor=none;strokeWidth=1;fontFamily=Verdana;fontSize=12" vertex="1" parent="1">
          <mxGeometry x="480" y="70" width="90" height="45" as="geometry" />
        </mxCell>
        <mxCell id="mE0wj-ytG5v5CyAUS7sz-9" style="edgeStyle=orthogonalEdgeStyle;rounded=0;orthogonalLoop=1;jettySize=auto;html=1;entryX=0;entryY=0;entryDx=0;entryDy=60;entryPerimeter=0;" edge="1" parent="1" source="mE0wj-ytG5v5CyAUS7sz-16" target="mE0wj-ytG5v5CyAUS7sz-19">
          <mxGeometry relative="1" as="geometry" />
        </mxCell>
        <mxCell id="mE0wj-ytG5v5CyAUS7sz-11" style="edgeStyle=orthogonalEdgeStyle;rounded=0;orthogonalLoop=1;jettySize=auto;html=1;" edge="1" parent="1" source="mE0wj-ytG5v5CyAUS7sz-14" target="mE0wj-ytG5v5CyAUS7sz-16">
          <mxGeometry relative="1" as="geometry" />
        </mxCell>
        <mxCell id="mE0wj-ytG5v5CyAUS7sz-12" style="edgeStyle=orthogonalEdgeStyle;rounded=0;orthogonalLoop=1;jettySize=auto;html=1;startArrow=classic;startFill=1;" edge="1" parent="1" source="mE0wj-ytG5v5CyAUS7sz-13" target="mE0wj-ytG5v5CyAUS7sz-14">
          <mxGeometry relative="1" as="geometry">
            <Array as="points">
              <mxPoint x="890" y="20" />
              <mxPoint x="155" y="20" />
            </Array>
          </mxGeometry>
        </mxCell>
        <mxCell id="mE0wj-ytG5v5CyAUS7sz-13" value="Client" style="ellipse;whiteSpace=wrap;html=1;" vertex="1" parent="1">
          <mxGeometry x="830" y="52.5" width="120" height="80" as="geometry" />
        </mxCell>
        <mxCell id="mE0wj-ytG5v5CyAUS7sz-14" value="nginx" style="verticalAlign=top;align=left;spacingTop=8;spacingLeft=2;spacingRight=12;shape=cube;size=10;direction=south;fontStyle=4;html=1;rounded=0;shadow=0;comic=0;labelBackgroundColor=none;strokeWidth=1;fontFamily=Verdana;fontSize=12" vertex="1" parent="1">
          <mxGeometry x="90" y="215" width="130" height="45" as="geometry" />
        </mxCell>
        <mxCell id="mE0wj-ytG5v5CyAUS7sz-16" value="Server" style="verticalAlign=top;align=left;spacingTop=8;spacingLeft=2;spacingRight=12;shape=cube;size=10;direction=south;fontStyle=4;html=1;rounded=0;shadow=0;comic=0;labelBackgroundColor=none;strokeWidth=1;fontFamily=Verdana;fontSize=12" vertex="1" parent="1">
          <mxGeometry x="240" y="280" width="130" height="45" as="geometry" />
        </mxCell>
        <mxCell id="mE0wj-ytG5v5CyAUS7sz-19" value="MySQL" style="verticalAlign=top;align=left;spacingTop=8;spacingLeft=2;spacingRight=12;shape=cube;size=10;direction=south;fontStyle=4;html=1;rounded=0;shadow=0;comic=0;labelBackgroundColor=none;strokeWidth=1;fontFamily=Verdana;fontSize=12" vertex="1" parent="1">
          <mxGeometry x="430" y="310" width="130" height="45" as="geometry" />
        </mxCell>
      </root>
    </mxGraphModel>
  </diagram>
</mxfile>
